#!OML:ASF F:\VICON\USERDATA\INSTALL\rory3\rory3.ASF
:FULLY-SPECIFIED
:DEGREES
44
root 0.3326309737995289 17.95484000300771 14.954733564290589 -1.8715431126370752 -5.6669239902140065 -3.6654867075216275
lfemur -0.15278031566977823 -0.4412933369972234 -14.911705512609192
ltibia 53.38926148974994
lfoot -0.5867020062358987 -0.8532295041012492
ltoes -2.333329324576439
rfemur -16.67979293832504 6.519655907848539 27.50260941655622
rtibia 36.6789675951263
rfoot -21.168144128231948 -10.818973266926744
rtoes -3.324752032492601
lowerback 9.790239013277139 0.022557545877881835 1.5437925779706678
upperback 0.4799988086771294 0.1838254368191805 2.236317654871857
thorax -5.059559870156192 0.10755093320666637 2.2565554884986416
lowerneck -17.02834861732799 -2.8308606585728158 -1.3695525171160634
upperneck 21.133832256319756 -3.613140655741723 0.25475687839564465
head 9.502997993044279 -1.7720429097467045 -0.10034864440650368
lclavicle -2.7971981745252597e-15 -4.160076164102663e-16
lhumerus -26.579278861008106 -4.544740334424306 83.53665484563044
lradius 23.993266597470967
lwrist 7.128729216451618
lhand -26.56903648182995 22.579197815337025
lfingers 7.1250199999999975
lthumb -0.23882281963550306 52.328036010848926
rclavicle -2.7971981744917445e-15 -4.1600761638744433e-16
rhumerus -28.363802989558348 -21.332368145045706 -76.68966631388999
rradius 24.640390902259526
rwrist 9.344959598146426
rhand -17.60559727504138 21.972511192814565
rfingers 7.1250199999999975
rthumb 8.77811172437251 -7.996566979928172
45
root 0.3492606465403966 17.983194066292487 15.753133636390153 -1.7715455570887957 -5.538928913328768 -4.216941327514457
lfemur -1.8682955450107936 -0.106895355376051 -13.884284986942589
ltibia 55.42619753142896
lfoot -1.2639672299589542 -0.9921339979347391
ltoes -2.402604158535463
rfemur -15.05237334162835 6.7965814619977145 28.31535420985296
rtibia 35.49896207030915
rfoot -21.614682719052354 -11.15570272642326
rtoes -4.74900151623037
lowerback 9.770446942192148 0.1923730476167122 2.1801370288171613
upperback 0.46421115802636775 0.5207540639340272 2.4343005026769915
thorax -5.070724432166297 0.29125956915120205 2.085401132429096
lowerneck -17.029627755381263 -2.85018880952844 -1.351353145490742
upperneck 21.158342423739978 -3.6408438289084835 0.2202546972103816
head 9.530625822221143 -1.783536227373128 -0.1317532302229387
lclavicle -2.797198174522219e-15 -4.1600761640831626e-16
lhumerus -27.503260747581912 -3.5988231270210935 83.52392398046493
lradius 23.008412746120708
lwrist 7.40408421521171
lhand -26.45011064092227 22.360903128670014
lfingers 7.1250199999999975
lthumb -0.1165480713095175 52.19871245119042
rclavicle -2.797198174488935e-15 -4.160076163856106e-16
rhumerus -27.733390744120936 -20.25354337435455 -76.76900464184281
rradius 24.88633719290813
rwrist 8.022208231143875
rhand -17.65812166629988 22.044774620349465
rfingers 7.1250199999999975
rthumb 8.672245940467926 -7.763907313963699
46
root 0.378707049462514 17.998747840011294 16.68799854407038 -1.8818774561327842 -5.459355556314698 -4.284809532104083
lfemur -3.328000033945967 0.11897253514914397 -13.418385868519803
ltibia 56.976614765110114
lfoot -2.1656208104310717 -1.1281184496667866
ltoes -1.72475754217872
rfemur -13.474772716552938 6.938585946392759 28.745972497493522
rtibia 34.56469438229465
rfoot -21.980434067485454 -11.368581111915773
rtoes -5.858568090539828
lowerback 9.777821031568276 0.3501058916875854 2.4790457936780816
upperback 0.45157702970293767 0.8040345083454039 2.5231244126130177
thorax -5.068265184788851 0.43276625724039725 1.8431250496905611
lowerneck -17.00459024841497 -2.8657852544584412 -1.321221837586682
upperneck 21.188649487703646 -3.6620671741815816 0.1897907880331663
head 9.562740040843167 -1.7909825780042334 -0.15896977340625315
lclavicle -2.79719817451468e-15 -4.1600761640350204e-16
lhumerus -28.414084091122074 -2.4181965941902126 83.61558569856513
lradius 22.187679515520955
lwrist 7.5360963452212495
lhand -26.53273039650059 22.134347230860428
lfingers 7.1250199999999975
lthumb -0.14860815329433663 52.103782356230916
rclavicle -2.7971981744908294e-15 -4.16007616387078e-16
rhumerus -27.291582232355594 -19.349174095699986 -76.59636420550027
rradius 25.03258012084538
rwrist 6.34408810115889
rhand -17.685004960841507 22.181783643125126
rfingers 7.1250199999999975
rthumb 8.64845615305767 -7.441506072602676
47
root 0.403028647552991 18.01444407005009 17.656421562164702 -1.9722680768907417 -5.240096421091746 -4.397650110888824
lfemur -4.7411451989616555 0.255666762495804 -13.173379464714916
ltibia 58.04082374382423
lfoot -3.300167246177882 -1.4149527018933465
ltoes -3.3505314336268017
rfemur -11.922983064643997 6.97518582466539 29.09115027726424
rtibia 33.58911870367351
rfoot -22.01452245485885 -11.415320487431893
rtoes -6.333687792217598
lowerback 9.769671989467637 0.5064431190970125 2.8249850684985907
upperback 0.4340633470183315 1.0808202147205086 2.5763542010659717
thorax -5.034390804262296 0.6058058168221743 1.6442665194587582
lowerneck -17.003719053959102 -2.882059474972281 -1.263017684670921
upperneck 21.249630241612227 -3.688767466462437 0.1518152409278768
head 9.619342826878537 -1.800707089351549 -0.19729126001255123
lclavicle -2.797198174513895e-15 -4.1600761640316544e-16
lhumerus -29.410225110515768 -1.228312541642345 83.79522845031276
lradius 21.616901525210384
lwrist 7.307761355286079
lhand -26.503924906523853 22.229407011581287
lfingers 7.1250199999999975
lthumb -0.09622322639424369 52.24107842789602
rclavicle -2.7971981744849643e-15 -4.16007616383406e-16
rhumerus -27.059542866318683 -18.713014809768563 -76.35633004657765
rradius 25.08076521679127
rwrist 5.603376372365095
rhand -17.76838130236099 22.10293201777684
rfingers 7.1250199999999975
rthumb 8.471858348708633 -7.436260003359901
48
root 0.42890318040276065 18.015277828081256 18.64441207063218 -2.228986681356544 -5.077206782583252 -4.236307146671841
lfemur -5.928713550718788 0.2732639183724346 -13.354428069974102
ltibia 58.57275265381151
lfoot -4.646650260073512 -1.8470523429307917
ltoes -3.4928684401318684
rfemur -10.516890729370937 6.933543804078319 29.10728774184025
rtibia 32.95726158107272
rfoot -22.01893161192959 -11.444230269743636
rtoes -6.831002892981061
lowerback 9.79241615263117 0.6513403688442886 2.8797514359203764
upperback 0.3778463914340683 1.27699857181852 2.5228094609557887
thorax -5.065084879556412 0.7101083355829315 1.4091544125553028
lowerneck -16.945566966296674 -2.8981952506573934 -1.2080581905782686
upperneck 21.23601277229493 -3.713546431151691 0.16163892638461186
head 9.624170412724622 -1.8102750603703284 -0.20978065276328803
lclavicle -2.7971981745139324e-15 -4.1600761640347833e-16
lhumerus -30.40798951193651 -0.26171430862616873 84.00002417945933
lradius 21.2777739448481
lwrist 7.248323934319789
lhand -26.817218033240557 22.054822762612847
lfingers 7.1250199999999975
lthumb -0.30596062403224056 52.22981242383201
rclavicle -2.7971981744826178e-15 -4.1600761638214496e-16
rhumerus -26.78532934409898 -18.070048035010974 -76.27713496580958
rradius 25.130078889025626
rwrist 5.548104845862674
rhand -17.812898696998804 22.089326857725368
rfingers 7.1250199999999975
rthumb 8.393629930441588 -7.2406800196914025
